{
  "accessors": [
    {
      "bufferView": 2,
      "componentType": 5126,
      "count": 31872,
      "max": [
        0.8483154773712158,
        3.8388051986694336,
        1.9520246982574463
      ],
      "min": [
        -0.8798379898071289,
        -0.030165672302246094,
        -1.9466023445129395
      ],
      "type": "VEC3"
    },
    {
      "bufferView": 2,
      "byteOffset": 382464,
      "componentType": 5126,
      "count": 31872,
      "max": [
        0.9999635815620422,
        0.9999445080757141,
        0.9999132752418518
      ],
      "min": [
        -0.9999635815620422,
        -0.999958336353302,
        -0.9992074370384216
      ],
      "type": "VEC3"
    },
    {
      "bufferView": 1,
      "componentType": 5126,
      "count": 31872,
      "max": [
        0.9925240278244019,
        0.9921483993530273
      ],
      "min": [
        0.00813907478004694,
        0.007996082305908203
      ],
      "type": "VEC2"
    },
    {
      "bufferView": 1,
      "byteOffset": 254976,
      "componentType": 5126,
      "count": 31872,
      "max": [
        0.9925240278244019,
        0.9921483993530273
      ],
      "min": [
        0.00813907478004694,
        0.007996082305908203
      ],
      "type": "VEC2"
    },
    {
      "bufferView": 1,
      "byteOffset": 509952,
      "componentType": 5126,
      "count": 31872,
      "max": [
        0.9925240278244019,
        0.9921483993530273
      ],
      "min": [
        0.00813907478004694,
        0.007996082305908203
      ],
      "type": "VEC2"
    },
    {
      "bufferView": 0,
      "componentType": 5125,
      "count": 171081,
      "type": "SCALAR"
    }
  ],
  "asset": {
    "extras": {
      "author": "pooiloui2 (https://sketchfab.com/pooiloui2)",
      "license": "CC-BY-4.0 (http://creativecommons.org/licenses/by/4.0/)",
      "source": "https://sketchfab.com/3d-models/chicken-98830a78e8c54354a7fbe5ca8346fbf9",
      "title": "Chicken"
    },
    "generator": "Sketchfab-12.68.0",
    "version": "2.0"
  },
  "bufferViews": [
    {
      "buffer": 0,
      "byteLength": 684324,
      "name": "floatBufferViews",
      "target": 34963
    },
    {
      "buffer": 0,
      "byteLength": 764928,
      "byteOffset": 684324,
      "byteStride": 8,
      "name": "floatBufferViews",
      "target": 34962
    },
    {
      "buffer": 0,
      "byteLength": 764928,
      "byteOffset": 1449252,
      "byteStride": 12,
      "name": "floatBufferViews",
      "target": 34962
    }
  ],
  "buffers": [
    {
      "byteLength": 2214180,
      "uri": "scene.bin"
    }
  ],
  "extensionsRequired": [
    "KHR_materials_pbrSpecularGlossiness"
  ],
  "extensionsUsed": [
    "KHR_materials_pbrSpecularGlossiness"
  ],
  "images": [
    {
      "uri": "textures/material_diffuse.png"
    },
    {
      "uri": "textures/material_specularGlossiness.png"
    }
  ],
  "materials": [
    {
      "doubleSided": true,
      "extensions": {
        "KHR_materials_pbrSpecularGlossiness": {
          "diffuseFactor": [
            1.0,
            1.0,
            1.0,
            1.0
          ],
          "diffuseTexture": {
            "index": 0
          },
          "glossinessFactor": 1.0,
          "specularFactor": [
            1.0,
            1.0,
            1.0
          ],
          "specularGlossinessTexture": {
            "index": 1
          }
        }
      },
      "name": "material"
    }
  ],
  "meshes": [
    {
      "name": "Object_0",
      "primitives": [
        {
          "attributes": {
            "NORMAL": 1,
            "POSITION": 0,
            "TEXCOORD_0": 2,
            "TEXCOORD_1": 3,
            "TEXCOORD_2": 4
          },
          "indices": 5,
          "material": 0,
          "mode": 4
        }
      ]
    }
  ],
  "nodes": [
    {
      "children": [
        1
      ],
      "matrix": [
        2.0817372798919678,
        0.0,
        0.0,
        0.0,
        0.0,
        4.622385318713213e-16,
        -2.0817372798919678,
        0.0,
        0.0,
        2.0817372798919678,
        4.622385318713213e-16,
        0.0,
        0.0,
        0.0,
        0.0,
        1.0
      ],
      "name": "Sketchfab_model"
    },
    {
      "children": [
        2
      ],
      "name": "root"
    },
    {
      "children": [
        3
      ],
      "matrix": [
        1.0,
        0.0,
        0.0,
        0.0,
        0.0,
        2.220446049250313e-16,
        1.0,
        0.0,
        0.0,
        -1.0,
        2.220446049250313e-16,
        0.0,
        0.0,
        0.0,
        0.0,
        1.0
      ],
      "name": "GLTF_SceneRootNode"
    },
    {
      "children": [
        4
      ],
      "name": "root_1"
    },
    {
      "children": [
        5
      ],
      "matrix": [
        0.03158532597670584,
        -0.0,
        -0.12851033240774987,
        0.0,
        0.0,
        0.13233494758605957,
        0.0,
        0.0,
        0.12851033240774987,
        0.0,
        0.03158532597670584,
        0.0,
        0.00014940793334972113,
        -0.2520080804824829,
        0.2558511793613434,
        1.0
      ],
      "name": "node_id53_0"
    },
    {
      "mesh": 0,
      "name": "Object_5"
    }
  ],
  "samplers": [
    {
      "magFilter": 9729,
      "minFilter": 9987,
      "wrapS": 10497,
      "wrapT": 10497
    }
  ],
  "scene": 0,
  "scenes": [
    {
      "name": "Sketchfab_Scene",
      "nodes": [
        0
      ]
    }
  ],
  "textures": [
    {
      "sampler": 0,
      "source": 0
    },
    {
      "sampler": 0,
      "source": 1
    }
  ]
}
