{
  "accessors": [
    {
      "bufferView": 2,
      "componentType": 5126,
      "count": 65532,
      "max": [
        0.9670159816741943,
        1.9300470352172852,
        6.461918830871582
      ],
      "min": [
        -1.1450510025024414,
        -1.8106969594955444,
        0.17733700573444366
      ],
      "type": "VEC3"
    },
    {
      "bufferView": 2,
      "byteOffset": 786384,
      "componentType": 5126,
      "count": 65532,
      "max": [
        0.9999953508377075,
        0.9999990463256836,
        0.9990665912628174
      ],
      "min": [
        -0.9999995231628418,
        -0.9999933242797852,
        -0.9998619556427002
      ],
      "type": "VEC3"
    },
    {
      "bufferView": 1,
      "componentType": 5126,
      "count": 65532,
      "max": [
        0.9963619709014893,
        0.8605960011482239
      ],
      "min": [
        0.00024399999529123306,
        0.000770999991800636
      ],
      "type": "VEC2"
    },
    {
      "bufferView": 0,
      "componentType": 5125,
      "count": 307626,
      "type": "SCALAR"
    },
    {
      "bufferView": 2,
      "byteOffset": 1572768,
      "componentType": 5126,
      "count": 65532,
      "max": [
        0.8746700286865234,
        1.6863479614257813,
        6.448627948760986
      ],
      "min": [
        -1.1410540342330933,
        -1.724020004272461,
        0.17733700573444366
      ],
      "type": "VEC3"
    },
    {
      "bufferView": 2,
      "byteOffset": 2359152,
      "componentType": 5126,
      "count": 65532,
      "max": [
        0.9999923706054688,
        0.9999994039535522,
        0.9999713897705078
      ],
      "min": [
        -0.9999899864196777,
        -0.9999994039535522,
        -0.9993692636489868
      ],
      "type": "VEC3"
    },
    {
      "bufferView": 1,
      "byteOffset": 524256,
      "componentType": 5126,
      "count": 65532,
      "max": [
        0.9995599985122681,
        0.8605960011482239
      ],
      "min": [
        0.002196999965235591,
        0.0020779999904334545
      ],
      "type": "VEC2"
    },
    {
      "bufferView": 0,
      "byteOffset": 1230504,
      "componentType": 5125,
      "count": 276558,
      "type": "SCALAR"
    },
    {
      "bufferView": 2,
      "byteOffset": 3145536,
      "componentType": 5126,
      "count": 65532,
      "max": [
        1.2963520288467407,
        1.7195260524749756,
        5.3258538246154785
      ],
      "min": [
        -0.7631940245628357,
        -0.9797509908676147,
        0.17733700573444366
      ],
      "type": "VEC3"
    },
    {
      "bufferView": 2,
      "byteOffset": 3931920,
      "componentType": 5126,
      "count": 65532,
      "max": [
        0.9998756647109985,
        0.9998878240585327,
        0.9999089241027832
      ],
      "min": [
        -0.9999994039535522,
        -0.999997615814209,
        -0.9999992847442627
      ],
      "type": "VEC3"
    },
    {
      "bufferView": 1,
      "byteOffset": 1048512,
      "componentType": 5126,
      "count": 65532,
      "max": [
        0.9996240139007568,
        0.8601070046424866
      ],
      "min": [
        0.00024399999529123306,
        0.0009030000073835254
      ],
      "type": "VEC2"
    },
    {
      "bufferView": 0,
      "byteOffset": 2336736,
      "componentType": 5125,
      "count": 279201,
      "type": "SCALAR"
    },
    {
      "bufferView": 2,
      "byteOffset": 4718304,
      "componentType": 5126,
      "count": 65532,
      "max": [
        1.247992992401123,
        0.5679540038108826,
        4.4539971351623535
      ],
      "min": [
        -0.747406005859375,
        -0.8937410116195679,
        1.5612159967422485
      ],
      "type": "VEC3"
    },
    {
      "bufferView": 2,
      "byteOffset": 5504688,
      "componentType": 5126,
      "count": 65532,
      "max": [
        0.9999710321426392,
        0.9999967813491821,
        0.9996830821037292
      ],
      "min": [
        -0.9998663663864136,
        -0.9998481869697571,
        -0.9999262094497681
      ],
      "type": "VEC3"
    },
    {
      "bufferView": 1,
      "byteOffset": 1572768,
      "componentType": 5126,
      "count": 65532,
      "max": [
        0.9994909763336182,
        0.8601070046424866
      ],
      "min": [
        0.00024399999529123306,
        0.000754999986384064
      ],
      "type": "VEC2"
    },
    {
      "bufferView": 0,
      "byteOffset": 3453540,
      "componentType": 5125,
      "count": 260295,
      "type": "SCALAR"
    },
    {
      "bufferView": 2,
      "byteOffset": 6291072,
      "componentType": 5126,
      "count": 65534,
      "max": [
        1.1014759540557861,
        2.4029510021209717,
        6.2277421951293945
      ],
      "min": [
        -0.7449600100517273,
        -0.8108980059623718,
        1.542188048362732
      ],
      "type": "VEC3"
    },
    {
      "bufferView": 2,
      "byteOffset": 7077480,
      "componentType": 5126,
      "count": 65534,
      "max": [
        0.9999635219573975,
        0.9999175071716309,
        0.999715268611908
      ],
      "min": [
        -0.9997310042381287,
        -0.9999758005142212,
        -0.9997910857200623
      ],
      "type": "VEC3"
    },
    {
      "bufferView": 1,
      "byteOffset": 2097024,
      "componentType": 5126,
      "count": 65534,
      "max": [
        0.999521017074585,
        0.8601070046424866
      ],
      "min": [
        0.00024399999529123306,
        0.01055699959397316
      ],
      "type": "VEC2"
    },
    {
      "bufferView": 0,
      "byteOffset": 4494720,
      "componentType": 5125,
      "count": 269481,
      "type": "SCALAR"
    },
    {
      "bufferView": 2,
      "byteOffset": 7863888,
      "componentType": 5126,
      "count": 65532,
      "max": [
        0.8550159931182861,
        2.1895110607147217,
        6.470594882965088
      ],
      "min": [
        -1.1548709869384766,
        -1.820572018623352,
        0.17733700573444366
      ],
      "type": "VEC3"
    },
    {
      "bufferView": 2,
      "byteOffset": 8650272,
      "componentType": 5126,
      "count": 65532,
      "max": [
        0.9998736381530762,
        0.9999991655349731,
        0.9996201395988464
      ],
      "min": [
        -0.9999988079071045,
        -0.9966641068458557,
        -0.9998120665550232
      ],
      "type": "VEC3"
    },
    {
      "bufferView": 1,
      "byteOffset": 2621296,
      "componentType": 5126,
      "count": 65532,
      "max": [
        0.9994310140609741,
        0.8605960011482239
      ],
      "min": [
        0.00024399999529123306,
        0.0007609999738633633
      ],
      "type": "VEC2"
    },
    {
      "bufferView": 0,
      "byteOffset": 5572644,
      "componentType": 5125,
      "count": 276273,
      "type": "SCALAR"
    },
    {
      "bufferView": 2,
      "byteOffset": 9436656,
      "componentType": 5126,
      "count": 65532,
      "max": [
        0.9970139861106873,
        2.4341540336608887,
        6.249288082122803
      ],
      "min": [
        -0.721297025680542,
        -1.0928930044174194,
        1.5430090427398682
      ],
      "type": "VEC3"
    },
    {
      "bufferView": 2,
      "byteOffset": 10223040,
      "componentType": 5126,
      "count": 65532,
      "max": [
        0.9999442100524902,
        0.9999967813491821,
        0.9998324513435364
      ],
      "min": [
        -0.9999864101409912,
        -0.9998817443847656,
        -0.9996950030326843
      ],
      "type": "VEC3"
    },
    {
      "bufferView": 1,
      "byteOffset": 3145552,
      "componentType": 5126,
      "count": 65532,
      "max": [
        0.9996219873428345,
        0.8605960011482239
      ],
      "min": [
        0.00024399999529123306,
        0.000737000023946166
      ],
      "type": "VEC2"
    },
    {
      "bufferView": 0,
      "byteOffset": 6677736,
      "componentType": 5125,
      "count": 246228,
      "type": "SCALAR"
    },
    {
      "bufferView": 2,
      "byteOffset": 11009424,
      "componentType": 5126,
      "count": 65532,
      "max": [
        0.8693410158157349,
        2.0383810997009277,
        6.195419788360596
      ],
      "min": [
        -0.7449740171432495,
        -0.8237550258636475,
        1.5493890047073364
      ],
      "type": "VEC3"
    },
    {
      "bufferView": 2,
      "byteOffset": 11795808,
      "componentType": 5126,
      "count": 65532,
      "max": [
        0.999983549118042,
        0.9999986886978149,
        0.9997474551200867
      ],
      "min": [
        -0.9999074935913086,
        -0.9999616146087646,
        -0.9999182224273682
      ],
      "type": "VEC3"
    },
    {
      "bufferView": 1,
      "byteOffset": 3669808,
      "componentType": 5126,
      "count": 65532,
      "max": [
        0.9995729923248291,
        0.8605960011482239
      ],
      "min": [
        0.00024399999529123306,
        0.002686999971047044
      ],
      "type": "VEC2"
    },
    {
      "bufferView": 0,
      "byteOffset": 7662648,
      "componentType": 5125,
      "count": 220401,
      "type": "SCALAR"
    },
    {
      "bufferView": 2,
      "byteOffset": 12582192,
      "componentType": 5126,
      "count": 60676,
      "max": [
        1.3321280479431152,
        0.37442800402641296,
        4.878083229064941
      ],
      "min": [
        -0.7751560211181641,
        -0.8489450216293335,
        1.5439749956130981
      ],
      "type": "VEC3"
    },
    {
      "bufferView": 2,
      "byteOffset": 13310304,
      "componentType": 5126,
      "count": 60676,
      "max": [
        0.9999710321426392,
        0.99998939037323,
        0.9976959228515625
      ],
      "min": [
        -0.9999233484268188,
        -0.9999825954437256,
        -0.999795138835907
      ],
      "type": "VEC3"
    },
    {
      "bufferView": 1,
      "byteOffset": 4194064,
      "componentType": 5126,
      "count": 60676,
      "max": [
        0.9994680285453796,
        0.8601070046424866
      ],
      "min": [
        0.00024399999529123306,
        0.008336000144481659
      ],
      "type": "VEC2"
    },
    {
      "bufferView": 0,
      "byteOffset": 8544252,
      "componentType": 5125,
      "count": 211281,
      "type": "SCALAR"
    },
    {
      "bufferView": 2,
      "byteOffset": 14038416,
      "componentType": 5126,
      "count": 2440,
      "max": [
        0.8817390203475952,
        0.6696379780769348,
        0.17733800411224365
      ],
      "min": [
        -0.6565430164337158,
        -0.8753799796104431,
        0.17733700573444366
      ],
      "type": "VEC3"
    },
    {
      "bufferView": 2,
      "byteOffset": 14067696,
      "componentType": 5126,
      "count": 2440,
      "max": [
        0.09110274910926819,
        0.01840054616332054,
        -0.9823126196861267
      ],
      "min": [
        -0.1865023970603943,
        -0.017900703474879265,
        -1.0
      ],
      "type": "VEC3"
    },
    {
      "bufferView": 1,
      "byteOffset": 4679472,
      "componentType": 5126,
      "count": 2440,
      "max": [
        0.8008729815483093,
        0.6952430009841919
      ],
      "min": [
        0.6816779971122742,
        0.5712670087814331
      ],
      "type": "VEC2"
    },
    {
      "bufferView": 0,
      "byteOffset": 9389376,
      "componentType": 5125,
      "count": 3486,
      "type": "SCALAR"
    }
  ],
  "asset": {
    "extras": {
      "author": "noe-3d.at (https://sketchfab.com/www.noe-3d.at)",
      "license": "CC-BY-NC-4.0 (http://creativecommons.org/licenses/by-nc/4.0/)",
      "source": "https://sketchfab.com/3d-models/engel-62957ad1736a43369c60a8f402e9ae27",
      "title": "Engel"
    },
    "generator": "Sketchfab-12.65.0",
    "version": "2.0"
  },
  "bufferViews": [
    {
      "buffer": 0,
      "byteLength": 9403320,
      "name": "floatBufferViews",
      "target": 34963
    },
    {
      "buffer": 0,
      "byteLength": 4698992,
      "byteOffset": 9403320,
      "byteStride": 8,
      "name": "floatBufferViews",
      "target": 34962
    },
    {
      "buffer": 0,
      "byteLength": 14096976,
      "byteOffset": 14102312,
      "byteStride": 12,
      "name": "floatBufferViews",
      "target": 34962
    }
  ],
  "buffers": [
    {
      "byteLength": 28199288,
      "uri": "scene.bin"
    }
  ],
  "images": [
    {
      "uri": "textures/Engel_O_Material_u1_v1_baseColor.png"
    }
  ],
  "materials": [
    {
      "doubleSided": true,
      "name": "Engel_O_Material_u1_v1",
      "pbrMetallicRoughness": {
        "baseColorTexture": {
          "index": 0
        },
        "metallicFactor": 0.1841152436,
        "roughnessFactor": 0.68820112
      }
    },
    {
      "doubleSided": true,
      "name": "bottom",
      "pbrMetallicRoughness": {
        "baseColorFactor": [
          0.0055728298,
          0.0045065174,
          0.0045065174,
          1.0
        ],
        "metallicFactor": 0.0
      }
    }
  ],
  "meshes": [
    {
      "name": "Object_0",
      "primitives": [
        {
          "attributes": {
            "NORMAL": 1,
            "POSITION": 0,
            "TEXCOORD_0": 2
          },
          "indices": 3,
          "material": 0,
          "mode": 4
        }
      ]
    },
    {
      "name": "Object_1",
      "primitives": [
        {
          "attributes": {
            "NORMAL": 5,
            "POSITION": 4,
            "TEXCOORD_0": 6
          },
          "indices": 7,
          "material": 0,
          "mode": 4
        }
      ]
    },
    {
      "name": "Object_2",
      "primitives": [
        {
          "attributes": {
            "NORMAL": 9,
            "POSITION": 8,
            "TEXCOORD_0": 10
          },
          "indices": 11,
          "material": 0,
          "mode": 4
        }
      ]
    },
    {
      "name": "Object_3",
      "primitives": [
        {
          "attributes": {
            "NORMAL": 13,
            "POSITION": 12,
            "TEXCOORD_0": 14
          },
          "indices": 15,
          "material": 0,
          "mode": 4
        }
      ]
    },
    {
      "name": "Object_4",
      "primitives": [
        {
          "attributes": {
            "NORMAL": 17,
            "POSITION": 16,
            "TEXCOORD_0": 18
          },
          "indices": 19,
          "material": 0,
          "mode": 4
        }
      ]
    },
    {
      "name": "Object_5",
      "primitives": [
        {
          "attributes": {
            "NORMAL": 21,
            "POSITION": 20,
            "TEXCOORD_0": 22
          },
          "indices": 23,
          "material": 0,
          "mode": 4
        }
      ]
    },
    {
      "name": "Object_6",
      "primitives": [
        {
          "attributes": {
            "NORMAL": 25,
            "POSITION": 24,
            "TEXCOORD_0": 26
          },
          "indices": 27,
          "material": 0,
          "mode": 4
        }
      ]
    },
    {
      "name": "Object_7",
      "primitives": [
        {
          "attributes": {
            "NORMAL": 29,
            "POSITION": 28,
            "TEXCOORD_0": 30
          },
          "indices": 31,
          "material": 0,
          "mode": 4
        }
      ]
    },
    {
      "name": "Object_8",
      "primitives": [
        {
          "attributes": {
            "NORMAL": 33,
            "POSITION": 32,
            "TEXCOORD_0": 34
          },
          "indices": 35,
          "material": 0,
          "mode": 4
        }
      ]
    },
    {
      "name": "Object_9",
      "primitives": [
        {
          "attributes": {
            "NORMAL": 37,
            "POSITION": 36,
            "TEXCOORD_0": 38
          },
          "indices": 39,
          "material": 1,
          "mode": 4
        }
      ]
    }
  ],
  "nodes": [
    {
      "children": [
        1
      ],
      "matrix": [
        -0.0064977016299963,
        -2.220399197740418e-16,
        0.9999788999557495,
        0.0,
        0.9999788999557495,
        -1.4427795913532603e-18,
        0.0064977016299963,
        0.0,
        0.0,
        1.0,
        2.220446049250313e-16,
        0.0,
        -0.217575803399086,
        8.824344245869978e-17,
        -0.39741313457489014,
        1.0
      ],
      "name": "Sketchfab_model"
    },
    {
      "children": [
        2,
        3,
        4,
        5,
        6,
        7,
        8,
        9,
        10,
        11
      ],
      "name": "Engel_C.obj.cleaner.materialmerger.gles"
    },
    {
      "mesh": 0,
      "name": "Object_2"
    },
    {
      "mesh": 1,
      "name": "Object_3"
    },
    {
      "mesh": 2,
      "name": "Object_4"
    },
    {
      "mesh": 3,
      "name": "Object_5"
    },
    {
      "mesh": 4,
      "name": "Object_6"
    },
    {
      "mesh": 5,
      "name": "Object_7"
    },
    {
      "mesh": 6,
      "name": "Object_8"
    },
    {
      "mesh": 7,
      "name": "Object_9"
    },
    {
      "mesh": 8,
      "name": "Object_10"
    },
    {
      "mesh": 9,
      "name": "Object_11"
    }
  ],
  "samplers": [
    {
      "magFilter": 9729,
      "minFilter": 9987,
      "wrapS": 10497,
      "wrapT": 10497
    }
  ],
  "scene": 0,
  "scenes": [
    {
      "name": "Sketchfab_Scene",
      "nodes": [
        0
      ]
    }
  ],
  "textures": [
    {
      "sampler": 0,
      "source": 0
    }
  ]
}
