{
    "asset" : {
        "generator" : "Khronos glTF Blender I/O v1.8.2",
        "version" : "2.0"
    },
    "extensionsUsed" : [
        "KHR_materials_transmission"
    ],
    "scene" : 0,
    "scenes" : [
        {
            "name" : "Scene",
            "nodes" : [
                0,
                1,
                2
            ]
        }
    ],
    "nodes" : [
        {
            "mesh" : 0,
            "name" : "Emission",
            "translation" : [
                0.03767942264676094,
                2.1953492164611816,
                -0.043856848031282425
            ]
        },
        {
            "mesh" : 1,
            "name" : "Glass.001",
            "translation" : [
                0.002880692481994629,
                2.2492880821228027,
                -0.007846713066101074
            ]
        },
        {
            "mesh" : 2,
            "name" : "Metal",
            "translation" : [
                0.0038393810391426086,
                2.322600841522217,
                -0.00428863987326622
            ]
        }
    ],
    "materials" : [
        {
            "doubleSided" : true,
            "emissiveFactor" : [
                1,
                1,
                1
            ],
            "name" : "emission spiral",
            "pbrMetallicRoughness" : {}
        },
        {
            "alphaMode" : "BLEND",
            "doubleSided" : true,
            "extensions" : {
                "KHR_materials_transmission" : {
                    "transmissionFactor" : 1
                }
            },
            "name" : "Glass",
            "pbrMetallicRoughness" : {
                "baseColorFactor" : [
                    0.8780072927474976,
                    0.8780072927474976,
                    0.8780072927474976,
                    0.8999999761581421
                ],
                "metallicFactor" : 0.30000001192092896,
                "roughnessFactor" : 0
            }
        },
        {
            "doubleSided" : true,
            "name" : "metal lustra",
            "pbrMetallicRoughness" : {
                "baseColorTexture" : {
                    "index" : 0
                },
                "metallicFactor" : 0,
                "roughnessFactor" : 0.4000000059604645
            }
        }
    ],
    "meshes" : [
        {
            "name" : "Circle.032",
            "primitives" : [
                {
                    "attributes" : {
                        "POSITION" : 0,
                        "NORMAL" : 1
                    },
                    "indices" : 2,
                    "material" : 0
                }
            ]
        },
        {
            "name" : "Circle.025",
            "primitives" : [
                {
                    "attributes" : {
                        "POSITION" : 3,
                        "NORMAL" : 4
                    },
                    "indices" : 5,
                    "material" : 1
                }
            ]
        },
        {
            "name" : "Circle.014",
            "primitives" : [
                {
                    "attributes" : {
                        "POSITION" : 6,
                        "NORMAL" : 7
                    },
                    "indices" : 8,
                    "material" : 2
                }
            ]
        }
    ],
    "textures" : [
        {
            "sampler" : 0,
            "source" : 0
        }
    ],
    "images" : [
        {
            "bufferView" : 9,
            "mimeType" : "image/jpeg",
            "name" : "Metal base"
        }
    ],
    "accessors" : [
        {
            "bufferView" : 0,
            "componentType" : 5126,
            "count" : 66258,
            "max" : [
                0.2549115717411041,
                0.3208697736263275,
                0.3342296779155731
            ],
            "min" : [
                -0.34730425477027893,
                -0.15009728074073792,
                -0.22408002614974976
            ],
            "type" : "VEC3"
        },
        {
            "bufferView" : 1,
            "componentType" : 5126,
            "count" : 66258,
            "type" : "VEC3"
        },
        {
            "bufferView" : 2,
            "componentType" : 5125,
            "count" : 100320,
            "type" : "SCALAR"
        },
        {
            "bufferView" : 3,
            "componentType" : 5126,
            "count" : 15623,
            "max" : [
                0.3417603671550751,
                0.3132513761520386,
                0.3490050733089447
            ],
            "min" : [
                -0.3675673007965088,
                -0.24495333433151245,
                -0.3091791570186615
            ],
            "type" : "VEC3"
        },
        {
            "bufferView" : 4,
            "componentType" : 5126,
            "count" : 15623,
            "type" : "VEC3"
        },
        {
            "bufferView" : 5,
            "componentType" : 5123,
            "count" : 90768,
            "type" : "SCALAR"
        },
        {
            "bufferView" : 6,
            "componentType" : 5126,
            "count" : 11872,
            "max" : [
                0.26606279611587524,
                0.6764911413192749,
                0.2725164294242859
            ],
            "min" : [
                -0.2864918112754822,
                -0.2646397650241852,
                -0.24336004257202148
            ],
            "type" : "VEC3"
        },
        {
            "bufferView" : 7,
            "componentType" : 5126,
            "count" : 11872,
            "type" : "VEC3"
        },
        {
            "bufferView" : 8,
            "componentType" : 5123,
            "count" : 65496,
            "type" : "SCALAR"
        }
    ],
    "bufferViews" : [
        {
            "buffer" : 0,
            "byteLength" : 795096,
            "byteOffset" : 0
        },
        {
            "buffer" : 0,
            "byteLength" : 795096,
            "byteOffset" : 795096
        },
        {
            "buffer" : 0,
            "byteLength" : 401280,
            "byteOffset" : 1590192
        },
        {
            "buffer" : 0,
            "byteLength" : 187476,
            "byteOffset" : 1991472
        },
        {
            "buffer" : 0,
            "byteLength" : 187476,
            "byteOffset" : 2178948
        },
        {
            "buffer" : 0,
            "byteLength" : 181536,
            "byteOffset" : 2366424
        },
        {
            "buffer" : 0,
            "byteLength" : 142464,
            "byteOffset" : 2547960
        },
        {
            "buffer" : 0,
            "byteLength" : 142464,
            "byteOffset" : 2690424
        },
        {
            "buffer" : 0,
            "byteLength" : 130992,
            "byteOffset" : 2832888
        },
        {
            "buffer" : 0,
            "byteLength" : 16517,
            "byteOffset" : 2963880
        }
    ],
    "samplers" : [
        {
            "magFilter" : 9729,
            "minFilter" : 9987
        }
    ],
    "buffers" : [
        {
            "byteLength" : 2980400,
            "uri" : "data:application/octet-stream;base64,"
        }
    ]
}
