{
    "asset" : {
        "generator" : "Khronos glTF Blender I/O v0.9.36",
        "version" : "2.0"
    },
    "scene" : 0,
    "scenes" : [
        {
            "name" : "Scene",
            "nodes" : [
                0
            ]
        }
    ],
    "nodes" : [
        {
            "mesh" : 0,
            "name" : "SHOE_CABINET",
            "rotation" : [
                0.7071068286895752,
                0,
                0,
                0.7071067094802856
            ]
        }
    ],
    "materials" : [
        {
            "doubleSided" : true,
            "name" : "wood",
            "pbrMetallicRoughness" : {
                "baseColorTexture" : {
                    "index" : 0,
                    "texCoord" : 0
                },
                "metallicFactor" : 0,
                "roughnessFactor" : 1
            }
        }
    ],
    "meshes" : [
        {
            "name" : "SHOE_CABINET",
            "primitives" : [
                {
                    "attributes" : {
                        "POSITION" : 0,
                        "NORMAL" : 1,
                        "TEXCOORD_0" : 2
                    },
                    "indices" : 3,
                    "material" : 0
                }
            ]
        }
    ],
    "textures" : [
        {
            "source" : 0
        }
    ],
    "images" : [
        {
            "bufferView" : 4,
            "mimeType" : "image/jpeg",
            "name" : "wood"
        }
    ],
    "accessors" : [
        {
            "bufferView" : 0,
            "componentType" : 5126,
            "count" : 27979,
            "max" : [
                0.3978559970855713,
                0.19236700236797333,
                0
            ],
            "min" : [
                -0.3978559970855713,
                -0.19236700236797333,
                -0.6572499871253967
            ],
            "type" : "VEC3"
        },
        {
            "bufferView" : 1,
            "componentType" : 5126,
            "count" : 27979,
            "type" : "VEC3"
        },
        {
            "bufferView" : 2,
            "componentType" : 5126,
            "count" : 27979,
            "type" : "VEC2"
        },
        {
            "bufferView" : 3,
            "componentType" : 5123,
            "count" : 44790,
            "type" : "SCALAR"
        }
    ],
    "bufferViews" : [
        {
            "buffer" : 0,
            "byteLength" : 335748,
            "byteOffset" : 0
        },
        {
            "buffer" : 0,
            "byteLength" : 335748,
            "byteOffset" : 335748
        },
        {
            "buffer" : 0,
            "byteLength" : 223832,
            "byteOffset" : 671496
        },
        {
            "buffer" : 0,
            "byteLength" : 89580,
            "byteOffset" : 895328
        },
        {
            "buffer" : 0,
            "byteLength" : 1520282,
            "byteOffset" : 984908
        }
    ],
    "buffers" : [
        {
            "byteLength" : 2505192,
            "uri" : "data:application/octet-stream;base64,"
        }
    ]
}
